{
  "title": "Selena Gomez - Hands To Myself (2016.Pop)",
  "uid": 13449382,
  "size": 89945138,
  "categoryP": "video",
  "categoryS": "music_videos",
  "magnet": "?xt=urn:btih:0d6c003c4e054dc8c5009c53430efaafc4a99c06&amp;dn=Selena+Gomez+-+Hands+To+Myself+%282016.Pop%29&amp;tr=udp%3A%2F%2Ftracker.leechers-paradise.org%3A6969&amp;tr=udp%3A%2F%2Fzer0day.ch%3A1337&amp;tr=udp%3A%2F%2Fopen.demonii.com%3A1337&amp;tr=udp%3A%2F%2Ftracker.coppersurfer.tk%3A6969&amp;tr=udp%3A%2F%2Fexodus.desync.com%3A6969",
  "seeders": 42,
  "leechers": 0,
  "uploader": "MeRaDil",
  "files": 1,
  "time": 1454782667,
  "description": "SELENA GOMEZ - HANDS TO MYSELF\r\n\r\n \nhttp://gifyu.com/images/SelenaG01.png\r\n \nhttp://gifyu.com/images/SelenaG.png\r\n\r\n\r\nGeneral\r\nSelena Gomez - Hands To Myself\r\nFormat                                   : MPEG-4\r\nFormat profile                           : Base Media\r\nCodec ID                                 : isom\r\nFile size                                : 85.8 MiB\r\nDuration                                 : 3mn 47s\r\nOverall bit rate                         : 3 161 Kbps\r\nMusicVid name                            : Hands To Myself\r\nAlbum                                    : Revival\r\nPerformer                                : Selena Gomez\r\nGenre                                    : Dance Pop\r\nContentType                              : Music Video\r\nRecorded date                            : 2016\r\nWriting application                      : Lavf56.32.100 / MeRaDil\r\nCover                                    : Yes\r\naurl                                     : https://www.selenagomez.com/\r\nrelt                                     : USA . january 20 . 2016\r\n\r\nVideo\r\nID                                       : 1\r\nFormat                                   : AVC\r\nFormat/Info                              : Advanced Video Codec\r\nFormat profile                           :   \r\nFormat settings, CABAC                   : Yes\r\nFormat settings, ReFrames                : 2 frames\r\nCodec ID                                 : avc1\r\nCodec ID/Info                            : Advanced Video Coding\r\nDuration                                 : 3mn 47s\r\nBit rate                                 : 2 883 Kbps\r\nWidth                                    : 1 920 pixels\r\nHeight                                   : 1 080 pixels\r\nDisplay aspect ratio                     : 16:9\r\nFrame rate mode                          : Variable\r\nFrame rate                               : 23.976 fps\r\nMinimum frame rate                       : 23.974 fps\r\nMaximum frame rate                       : 23.981 fps\r\nColor space                              : YUV\r\nChroma subsampling                       : 4:2:0\r\nBit depth                                : 8 bits\r\nScan type                                : Progressive\r\nBits/(Pixel*Frame)                       : 0.058\r\nStream size                              : 78.2 MiB (91%)\r\n\r\nAudio\r\nID                                       : 2\r\nFormat                                   : AAC\r\nFormat/Info                              : Advanced Audio Codec\r\nFormat profile                           : LC\r\nCodec ID                                 : 40\r\nDuration                                 : 3mn 47s\r\nBit rate mode                            : Constant\r\nBit rate                                 : 256 Kbps\r\nChannel(s)                               : 2 channels\r\nChannel positions                        : Front: L R\r\nSampling rate                            : 44.1 KHz\r\nCompression mode                         : Lossy\r\nStream size                              : 6.95 MiB (8%)",
  "parsed": {
    "xt": "urn:btih:0d6c003c4e054dc8c5009c53430efaafc4a99c06",
    "dn": "Selena Gomez - Hands To Myself (2016.Pop)",
    "tr": [
      "udp://exodus.desync.com:6969",
      "udp://open.demonii.com:1337",
      "udp://tracker.coppersurfer.tk:6969",
      "udp://tracker.leechers-paradise.org:6969",
      "udp://zer0day.ch:1337"
    ],
    "infoHash": "0d6c003c4e054dc8c5009c53430efaafc4a99c06",
    "infoHashBuffer": {
      "type": "Buffer",
      "data": [
        13,
        108,
        0,
        60,
        78,
        5,
        77,
        200,
        197,
        0,
        156,
        83,
        67,
        14,
        250,
        175,
        196,
        169,
        156,
        6
      ]
    },
    "name": "Selena Gomez - Hands To Myself (2016.Pop)",
    "announce": [
      "udp://exodus.desync.com:6969",
      "udp://open.demonii.com:1337",
      "udp://tracker.coppersurfer.tk:6969",
      "udp://tracker.leechers-paradise.org:6969",
      "udp://zer0day.ch:1337"
    ],
    "urlList": []
  },
  "previous": 123,
  "peers": 60,
  "last_updated": "2016-12-26T16:08:10.200Z"
}